<svg xmlns="http://www.w3.org/2000/svg" viewBox="43 101 1604.32 923" role="img" aria-labelledby="title desc" preserveAspectRatio="xMidYMid meet">

<title id="title">Network Graph Area Only wide layout</title>
<desc id="desc">A standalone SVG network map widened to fit the RF page without stretching icons, markers, or labels.</desc>

<style>
  /* =======================================================
     SVG STYLE SYSTEM
     Pure SVG. No HTML wrapper. No CSS variables.
     ======================================================= */

  .map-bg{ fill:#E5DDD2; }
  .map-edge{ fill:none; stroke:#d0a85d; stroke-width:3; opacity:.9; }
  .map-inner-edge{ fill:none; stroke:#fff1c8; stroke-width:2; opacity:.55; }

  .coord-line{ stroke:#806b45; stroke-width:1; opacity:.28; }
  .coord-text{ fill:#806b45; font:700 12px Arial,sans-serif; opacity:.62; }

  .route{
    fill:none;
    stroke-linecap:round;
    stroke-linejoin:round;
  }

  .route.main{ stroke-width:4.2; filter:url(#pathShadow); }
  .route.soft{ stroke-width:6.2; opacity:.14; }
  .route.green.main{ stroke:#13682b; }
  .route.green.soft{ stroke:#164d2a; }
  .route.blue.main{ stroke:#1c5aaf; }
  .route.blue.soft{ stroke:#103e76; }
  .route.teal{ stroke:#427c7b; stroke-width:3.4; opacity:.9; filter:url(#pathShadow); }

  .route.red.glow{ stroke:#fa7a45; stroke-width:15; opacity:.45; filter:url(#redGlow); }
  .route.red.outer{ stroke:#d73120; stroke-width:9.6; filter:url(#pathShadow); }
  .route.red.white{ stroke:#fff5da; stroke-width:4.3; opacity:.96; }
  .route.red.core{ stroke:#d73120; stroke-width:1.55; opacity:.95; }

  .route-dot circle{
    fill:#f7efd3;
    stroke-width:4;
  }

  .route-dot.green circle{ stroke:#176e2f; }
  .route-dot.blue circle{ stroke:#1e62ae; }

  .red-route-dot{ filter:url(#redDotGlow); }
  .red-route-dot .outer{ fill:#d72d1e; stroke:#fff8e6; stroke-width:1.8; }
  .red-route-dot .middle{ fill:#fff8e6; }
  .red-route-dot .inner{ fill:#d72d1e; }

  .marker{ filter:url(#markerShadow); }
  .marker .halo{ opacity:.55; }
  .marker .fill{ stroke-width:4; }
  .marker .ring{ fill:none; stroke-width:2; opacity:.55; }
  .marker .icon{ color:#fff7de; }

  .marker.core .halo,
  .marker.main .halo{ fill:#e8d9a0; }
  .marker.core .fill,
  .marker.main .fill{ fill:#106228; stroke:#5E6E51; }
  .marker.core .ring,
  .marker.main .ring{ stroke:#5E6E51; }

  .marker.remote .halo{ fill:#d7c88f; opacity:.35; }
  .marker.remote .fill{ fill:#1B4D81; stroke:#5B7289; }
  .marker.remote .ring{ stroke:#5B7289; }

  .marker.relay .halo{ fill:#ff5d32; opacity:.16; filter:url(#redGlow); }
  .marker.relay .fill{ fill:#9F231A; stroke:#8E575D; stroke-width:4.5; }
  .marker.relay .ring{ stroke:#8E575D; }

  .marker.worker .halo{ fill:#e8d9a0; opacity:.5; }
  .marker.worker.remote .halo{ fill:#d7c88f; opacity:.45; }

  .relay-halo-line{
    fill:none;
    stroke:#d73b23;
    stroke-width:1.15;
    stroke-linecap:round;
    opacity:.22;
  }

  .relay-halo-line.strong{ stroke-width:1.55; opacity:.28; }
  .relay-halo-ring{ fill:none; stroke:#d73b23; stroke-width:1.1; opacity:.18; }

  .site-label{
    font-family:'Arial Narrow','Roboto Condensed','Helvetica Neue Condensed',Impact,sans-serif;
    paint-order:stroke fill;
    stroke:#efe5cf;
  }

  .site-label .name{
    font-size:27px;
    font-weight:760;
    letter-spacing:.65px;
    fill:#172033;
    stroke-width:2px;
  }

  .site-label .type{
    font-size:18px;
    font-weight:820;
    letter-spacing:1.8px;
    stroke-width:1.4px;
  }

  .site-label.core .type,
  .site-label.main .type{ fill:#176e2f; }

  .site-label.relay .type{ fill:#bc2f21; }
  .site-label.remote .type{ fill:#1e62ae; }

  .compass circle,
  .compass path{ fill:none; stroke:#9f8751; }

  .compass-outer{ stroke-width:4; }
  .compass-inner{ stroke-width:2; }
  .compass-lines{ stroke-width:2.2; }
  .compass-star{ stroke-width:2; }

  .compass-label{
    font-family:Georgia, 'Times New Roman', serif;
    font-size:16px;
    fill:#9f8751;
  }

  .legend-panel{
    fill:#efe5d3;
    stroke:#c8a25d;
    stroke-width:1.5;
    filter:url(#legendShadow);
  }

  .legend-item text{
    font-family:'Arial Narrow','Roboto Condensed','Helvetica Neue Condensed',Impact,sans-serif;
    paint-order:stroke fill;
    stroke:#efe5cf;
    font-size:18px;
    font-weight:720;
    letter-spacing:.5px;
    fill:#2a2a28;
    stroke-width:1.3px;
  }
</style>

<defs>
  

  <radialGradient id="greenMarker" cx="36%" cy="30%" r="68%">
    <stop offset="0" stop-color="#34a642" />
    <stop offset=".5" stop-color="#1f812e" />
    <stop offset="1" stop-color="#075919" />
  </radialGradient>

  <radialGradient id="redMarker" cx="36%" cy="30%" r="68%">
    <stop offset="0" stop-color="#ff6443" />
    <stop offset=".5" stop-color="#de341f" />
    <stop offset="1" stop-color="#9d170f" />
  </radialGradient>

  <radialGradient id="blueMarker" cx="36%" cy="30%" r="68%">
    <stop offset="0" stop-color="#4d8fe5" />
    <stop offset=".5" stop-color="#2468b9" />
    <stop offset="1" stop-color="#103f7c" />
  </radialGradient>

  <radialGradient id="offlineMarker" cx="38%" cy="32%" r="68%">
    <stop offset="0" stop-color="#eeeeea" />
    <stop offset=".55" stop-color="#9b9b94" />
    <stop offset="1" stop-color="#575752" />
  </radialGradient>

  <filter id="markerShadow" x="-80%" y="-80%" width="260%" height="260%">
    <feDropShadow dx="0" dy="5" stdDeviation="4" flood-color="#0b1b0e" flood-opacity=".4" />
  </filter>

  <filter id="pathShadow" x="-30%" y="-30%" width="160%" height="160%">
    <feDropShadow dx="0" dy="2" stdDeviation="1.4" flood-color="#000" flood-opacity=".28" />
  </filter>

  <filter id="dotShadow" x="-80%" y="-80%" width="260%" height="260%">
    <feDropShadow dx="0" dy="2" stdDeviation="1.6" flood-color="#000" flood-opacity=".32" />
  </filter>

  <filter id="redGlow" x="-80%" y="-80%" width="260%" height="260%">
    <feGaussianBlur stdDeviation="5" result="blur" />
    <feMerge>
      <feMergeNode in="blur" />
      <feMergeNode in="SourceGraphic" />
    </feMerge>
  </filter>

  <filter id="redDotGlow" x="-90%" y="-90%" width="280%" height="280%">
    <feDropShadow dx="0" dy="0" stdDeviation="4" flood-color="#ff5a31" flood-opacity=".7" />
    <feDropShadow dx="0" dy="2" stdDeviation="1.5" flood-color="#000" flood-opacity=".25" />
  </filter>

  <filter id="legendShadow" x="-30%" y="-60%" width="160%" height="220%">
    <feDropShadow dx="0" dy="2" stdDeviation="3" flood-color="#6c5529" flood-opacity=".16" />
  </filter>

  

  <path id="green-routes" d="M 241.32 203 L 251.68 340 L 281.28 423 M 265 190 L 488.48 305 L 541.76 352 M 313.84 438 L 503.28 387 M 578.76 358 L 747.48 240 L 987.24 177 M 1025.72 204 L 1108.6 318 L 1181.12 357 M 562.48 420 L 583.2 454 L 602.44 497 M 627.6 571 L 677.92 672 L 754.88 724" />

  <path id="blue-routes" d="M 353.8 712 L 506.24 727 L 737.12 747 M 307.92 681 L 420.4 609 L 546.2 560 M 852.56 764 L 1095.28 769 L 1375 738 M 836.28 737 L 1150.04 620 L 1318.76 551 M 1235.88 406 L 1343.92 506 M 1361.68 565 L 1388.32 650 L 1407.56 716" />

  <path id="teal-route" d="M 312.36 465 L 538.8 582 L 738.6 735" />
  <path id="red-route" d="M 830.36 726 L 929.52 668 L 1076.04 507 L 1179.64 412" />

  

  <g id="mast-icon" stroke="currentColor" fill="none" stroke-linecap="round" stroke-linejoin="round">
    <path d="M0 -18v39" stroke-width="3.2" />
    <path d="M0 -5L-13 23M0 -5L13 23" stroke-width="3.2" />
    <path d="M-9 10H9M-6 0H6M-4 18H4" stroke-width="2.4" />
    <circle cx="0" cy="-20" r="3.8" fill="currentColor" stroke="none" />
    <path d="M-8 -23C-16 -15 -16 -5 -8 4" stroke-width="2.8" />
    <path d="M8 -23C16 -15 16 -5 8 4" stroke-width="2.8" />
    <path d="M-14 -29C-27 -16 -27 4 -14 16" stroke-width="2.4" opacity=".9" />
    <path d="M14 -29C27 -16 27 4 14 16" stroke-width="2.4" opacity=".9" />
  </g>

  <g id="person-icon" fill="currentColor">
    <circle cx="0" cy="-9" r="7" />
    <path d="M-13 15c1.3-12.5 6-18 13-18s11.7 5.5 13 18z" />
  </g>

  

  <g id="marker-core" class="marker core">
    <circle r="38" class="halo" />
    <circle r="33" class="fill" />
    <circle r="28" class="ring" />
    <g class="icon" transform="scale(.88)">
<use href="#mast-icon" />
</g>
  </g>

  <g id="marker-main" class="marker main">
    <circle r="43" class="halo" />
    <circle r="38" class="fill" />
    <circle r="32" class="ring" />
    <g class="icon" transform="scale(.92)">
<use href="#mast-icon" />
</g>
  </g>

  <g id="marker-london" class="marker core">
    <circle r="55" class="halo" opacity=".62" />
    <circle r="49" class="fill" stroke-width="5" />
    <circle r="41" class="ring" />
    <g class="icon" transform="scale(1.12)">
<use href="#mast-icon" />
</g>
  </g>

  <g id="marker-remote" class="marker remote">
    <circle r="38" class="halo" />
    <circle r="32" class="fill" />
    <circle r="27" class="ring" />
    <g class="icon" transform="scale(.78)">
<use href="#mast-icon" />
</g>
  </g>

  <g id="marker-relay" class="marker relay">
    <circle r="62" class="halo" />
    <use href="#relay-halo-mesh" aria-hidden="true" />
    <circle r="44" class="fill" />
    <circle r="37" class="ring" />
    <g class="icon" transform="scale(1.02)">
<use href="#mast-icon" />
</g>
  </g>

  <g id="marker-worker" class="marker worker core">
    <circle r="30" class="halo" />
    <circle r="26" class="fill" stroke-width="3.5" />
    <g class="icon" transform="scale(.9)">
<use href="#person-icon" />
</g>
  </g>

  <g id="marker-worker-small" class="marker worker core">
    <circle r="26" class="halo" />
    <circle r="21" class="fill" stroke-width="3.2" />
    <g class="icon" transform="scale(.7)">
<use href="#person-icon" />
</g>
  </g>

  <g id="marker-worker-remote" class="marker worker remote">
    <circle r="31" class="halo" />
    <circle r="26" class="fill" stroke-width="3.6" />
    <g class="icon" transform="scale(.76)">
<use href="#person-icon" />
</g>
  </g>

  

  <g id="dot-green" class="route-dot green" filter="url(#dotShadow)">
    <circle r="8" />
  </g>

  <g id="dot-blue" class="route-dot blue" filter="url(#dotShadow)">
    <circle r="8" />
  </g>

  <g id="dot-red" class="red-route-dot">
    <circle r="18" class="outer" />
    <circle r="13" class="middle" />
    <circle r="9" class="inner" />
  </g>

  

  <g id="relay-halo-mesh">
    <circle r="51" class="relay-halo-ring" />
    <circle r="61" class="relay-halo-ring" />
    <circle r="72" class="relay-halo-ring" opacity=".11" />
    <path class="relay-halo-line" d="M42.3 7.5L72.9 12.8 M40.4 14.7L69.5 25.3 M32.9 27.6L56.7 47.6 M27.6 32.9L47.6 56.7 M14.7 40.4L25.3 69.5 M7.5 42.3L12.8 72.9 M-7.5 42.3L-12.8 72.9 M-14.7 40.4L-25.3 69.5 M-27.6 32.9L-47.6 56.7 M-32.9 27.6L-56.7 47.6 M-40.4 14.7L-69.5 25.3 M-42.3 7.5L-72.9 12.8 M-42.3 -7.5L-72.9 -12.8 M-40.4 -14.7L-69.5 -25.3 M-32.9 -27.6L-56.7 -47.6 M-27.6 -32.9L-47.6 -56.7 M-14.7 -40.4L-25.3 -69.5 M-7.5 -42.3L-12.8 -72.9 M7.5 -42.3L12.8 -72.9 M14.7 -40.4L25.3 -69.5 M27.6 -32.9L47.6 -56.7 M32.9 -27.6L56.7 -47.6 M40.4 -14.7L69.5 -25.3 M42.3 -7.5L72.9 -12.8" />
    <path class="relay-halo-line strong" d="M38.0 0.0L82.0 0.0 M32.9 19.0L71.0 41.0 M19.0 32.9L41.0 71.0 M0.0 38.0L0.0 82.0 M-19.0 32.9L-41.0 71.0 M-32.9 19.0L-71.0 41.0 M-38.0 0.0L-82.0 0.0 M-32.9 -19.0L-71.0 -41.0 M-19.0 -32.9L-41.0 -71.0 M-0.0 -38.0L-0.0 -82.0 M19.0 -32.9L41.0 -71.0 M32.9 -19.0L71.0 -41.0 M-82 0L82 0 M0 -82L0 82" />
  </g>

  

  <g id="compass-rose" class="compass">
    <circle r="60" class="compass-outer" />
    <circle r="20" class="compass-inner" />
    <path class="compass-lines" d="M0-72V72M-72 0H72M-51-51L51 51M51-51L-51 51" />
    <path class="compass-star" d="M0-60L12-12L60 0L12 12L0 60L-12 12L-60 0L-12-12Z" />
    <text x="-85" y="5" class="compass-label">W</text>
    <text x="78" y="5" class="compass-label">E</text>
    <text x="-5" y="-78" class="compass-label">N</text>
  </g>

  <g id="legend-strip">
    <rect width="584" height="50" rx="14" class="legend-panel" />

    <g class="legend-item" transform="translate(34 26)">
      <circle r="10" fill="url(#greenMarker)" stroke="#6f6557" stroke-width="1.25" filter="url(#dotShadow)" />
      <text x="24" y="6">Core</text>
    </g>

    <g class="legend-item" transform="translate(130 26)">
      <circle r="10" fill="url(#greenMarker)" stroke="#6f6557" stroke-width="1.25" filter="url(#dotShadow)" />
      <text x="24" y="6">Main</text>
    </g>

    <g class="legend-item" transform="translate(229 26)">
      <circle r="10" fill="url(#redMarker)" stroke="#6f6557" stroke-width="1.25" filter="url(#dotShadow)" />
      <text x="24" y="6">Relay</text>
    </g>

    <g class="legend-item" transform="translate(335 26)">
      <circle r="10" fill="url(#blueMarker)" stroke="#6f6557" stroke-width="1.25" filter="url(#dotShadow)" />
      <text x="24" y="6">Remote</text>
    </g>

    <g class="legend-item" transform="translate(463 26)">
      <circle r="10" fill="url(#offlineMarker)" stroke="#6f6557" stroke-width="1.25" filter="url(#dotShadow)" />
      <text x="24" y="6">Offline</text>
    </g>
  </g>
</defs>



<g id="map-frame">
  <rect x="43" y="101" width="1604.32" height="923" rx="15" class="map-bg" />
  <rect x="43" y="101" width="1604.32" height="923" rx="15" class="map-edge" opacity=".55" />
  <rect x="51.88" y="107" width="1586.56" height="911" rx="11" class="map-inner-edge" opacity=".45" />
  <rect x="43" y="101" width="1604.32" height="923" rx="15" class="map-inner-edge" />
  <rect x="43" y="101" width="1604.32" height="923" rx="15" class="map-edge" />
</g>


<g id="coordinate-guide" opacity="0">
  <path class="coord-line" d="M100 101V1024M200 101V1024M300 101V1024M400 101V1024M500 101V1024M600 101V1024M700 101V1024M800 101V1024M900 101V1024M1000 101V1024M1100 101V1024" />
  <path class="coord-line" d="M43 200H1127M43 300H1127M43 400H1127M43 500H1127M43 600H1127M43 700H1127M43 800H1127M43 900H1127M43 1000H1127" />
  <text class="coord-text" x="130.32" y="123">x100</text>
  <text class="coord-text" x="278.32" y="123">x200</text>
  <text class="coord-text" x="426.32" y="123">x300</text>
  <text class="coord-text" x="574.32" y="123">x400</text>
  <text class="coord-text" x="722.32" y="123">x500</text>
  <text class="coord-text" x="870.32" y="123">x600</text>
  <text class="coord-text" x="1018.32" y="123">x700</text>
  <text class="coord-text" x="1166.32" y="123">x800</text>
  <text class="coord-text" x="1314.32" y="123">x900</text>
  <text class="coord-text" x="1462.32" y="123">x1000</text>
  <text class="coord-text" x="60.76" y="204">y200</text>
  <text class="coord-text" x="60.76" y="304">y300</text>
  <text class="coord-text" x="60.76" y="404">y400</text>
  <text class="coord-text" x="60.76" y="504">y500</text>
  <text class="coord-text" x="60.76" y="604">y600</text>
  <text class="coord-text" x="60.76" y="704">y700</text>
  <text class="coord-text" x="60.76" y="804">y800</text>
  <text class="coord-text" x="60.76" y="904">y900</text>
  <text class="coord-text" x="60.76" y="1004">y1000</text>
</g>

<g id="routes">
  <use href="#green-routes" class="route soft green" />
  <use href="#green-routes" class="route main green" />

  <use href="#teal-route" class="route teal" />

  <use href="#blue-routes" class="route soft blue" />
  <use href="#blue-routes" class="route main blue" />

  <use href="#red-route" class="route red glow" />
  <use href="#red-route" class="route red outer" />
  <use href="#red-route" class="route red white" />
  <use href="#red-route" class="route red core" />
</g>

<g id="route-dots">
  <use href="#dot-green" transform="translate(251.68 340)" />
  <use href="#dot-green" transform="translate(488.48 305)" />
  <use href="#dot-green" transform="translate(583.2 454)" />
  <use href="#dot-green" transform="translate(677.92 672)" />
  <use href="#dot-green" transform="translate(1108.6 318)" />

  <use href="#dot-blue" transform="translate(506.24 727)" />
  <use href="#dot-blue" transform="translate(420.4 609)" />
  <use href="#dot-blue" transform="translate(1095.28 769)" />
  <use href="#dot-blue" transform="translate(1150.04 620)" />
  <use href="#dot-blue" transform="translate(1388.32 650)" />

  <use href="#dot-red" transform="translate(929.52 668)" />
  <use href="#dot-red" transform="translate(1076.04 507)" />
</g>

<g id="sites">
  <g id="site-glasgow" transform="translate(235.4 171)">
    <use href="#marker-core" />
    <text class="site-label core" transform="translate(60.76 -9)">
      <tspan x="-20.64" y="0" class="name">GLASGOW</tspan>
      <tspan x="-20.64" dy="30" class="type">CORE</tspan>
    </text>
  </g>

  <g id="site-edinburgh" transform="translate(1019.8 171)">
    <use href="#marker-core" />
    <text class="site-label core" transform="translate(51.88 -9)">
      <tspan x="-20.64" y="0" class="name">EDINBURGH</tspan>
      <tspan x="-20.64" dy="30" class="type">CORE</tspan>
    </text>
  </g>

  <g id="site-hilltop" transform="translate(1191.48 371)">
    <use href="#marker-relay" />
    <text class="site-label relay" transform="translate(75.56 -26)">
      <tspan x="-20.64" y="0" class="name">HILLTOP</tspan>
      <tspan x="-20.64" dy="31" class="type">RELAY</tspan>
    </text>
  </g>

  <g id="site-ridgeway" transform="translate(1354.28 534)">
    <use href="#marker-remote" />
    <text class="site-label relay" transform="translate(25.24 -5)">
      <tspan x="-20.64" y="0" class="name">RIDGEWAY</tspan>
      <tspan x="-20.64" dy="31" class="type">RELAY</tspan>
    </text>
  </g>

  <g id="site-valley" transform="translate(306.44 711)">
    <use href="#marker-remote" />
    <text class="site-label remote" transform="translate(69.64 54)">
      <tspan x="-20.64" y="0" class="name">VALLEY</tspan>
      <tspan x="-20.64" dy="30" class="type">REMOTE</tspan>
    </text>
  </g>

  <g id="site-birmingham" transform="translate(602.44 537)">
    <use href="#marker-main" />
    <text class="site-label main" transform="translate(48.92 -2)">
      <tspan x="-20.64" y="0" class="name">BIRMINGHAM</tspan>
      <tspan x="-20.64" dy="31" class="type">MAIN</tspan>
    </text>
  </g>

  <g id="site-manchester" transform="translate(549.16 384)">
    <use href="#marker-main" />
    <text class="site-label main" transform="translate(57.8 4)">
      <tspan x="-20.64" y="0" class="name">MANCHESTER</tspan>
      <tspan x="-20.64" dy="31" class="type">MAIN</tspan>
    </text>
  </g>

  <g id="site-london" transform="translate(790.4 758)">
    <use href="#marker-london" />
    <text class="site-label core" transform="translate(-90.2 67)">
      <tspan x="-20.64" y="0" class="name">LONDON</tspan>
      <tspan x="-20.64" dy="31" class="type">CORE</tspan>
    </text>
  </g>

  <g id="site-field-worker" transform="translate(281.28 444)">
    <use href="#marker-worker" />
  </g>

  <g id="site-northern-worker" transform="translate(753.4 237)">
    <use href="#marker-worker-small" />
  </g>

  <g id="site-pinewood" transform="translate(1419.4 737)">
    <use href="#marker-worker-remote" />
    <text class="site-label remote" transform="translate(-39.88 60)">
      <tspan x="-20.64" y="0" class="name">PINEWOOD</tspan>
      <tspan x="-20.64" dy="30" class="type">REMOTE</tspan>
    </text>
  </g>
</g>

<use id="compass" href="#compass-rose" transform="translate(222.08 845)" opacity=".28" />
<use id="legend" href="#legend-strip" transform="translate(77.04 959)" />

</svg>
