<svg xmlns="&#x68;&#x74;&#x74;&#x70;&#x3A;&#x2F;&#x2F;&#x77;&#x77;&#x77;&#x2E;&#x77;&#x33;&#x2E;&#x6F;&#x72;&#x67;&#x2F;&#x32;&#x30;&#x30;&#x30;&#x2F;&#x73;&#x76;&#x67;" viewBox="0 0 390 844" preserveAspectRatio="none">
<defs>
<linearGradient id="c" x1="-30" y1="10" x2="355" y2="756" gradientUnits="userSpaceOnUse"><stop stop-opacity="0"/><stop offset=".18" stop-color="#37b7ff" stop-opacity=".25"/><stop offset=".38" stop-color="#d0fbff" stop-opacity=".78"/><stop offset=".56" stop-color="#75dcff" stop-opacity=".88"/><stop offset=".78" stop-color="#1d87db" stop-opacity=".32"/><stop offset="1" stop-opacity="0"/></linearGradient>
<linearGradient id="l" x1="-90" y1="792" x2="425" y2="310" gradientUnits="userSpaceOnUse"><stop stop-opacity="0"/><stop offset=".18" stop-color="#32aaf7" stop-opacity=".2"/><stop offset=".44" stop-color="#c4f9ff" stop-opacity=".42"/><stop offset=".72" stop-color="#2a9dea" stop-opacity=".2"/><stop offset="1" stop-opacity="0"/></linearGradient>
<linearGradient id="g" x1="-72" y1="794" x2="408" y2="324" gradientUnits="userSpaceOnUse"><stop stop-opacity="0"/><stop offset=".3" stop-color="#e5ba58" stop-opacity=".22"/><stop offset=".5" stop-color="#fff2bc"/><stop offset=".64" stop-color="#ffd66b" stop-opacity=".78"/><stop offset="1" stop-opacity="0"/></linearGradient>
<linearGradient id="s" x1="-80" y1="148" x2="470" y2="504" gradientUnits="userSpaceOnUse"><stop stop-opacity="0"/><stop offset=".2" stop-color="#a7f4ff" stop-opacity=".76"/><stop offset=".36" stop-color="#55d0ff" stop-opacity=".68"/><stop offset=".63" stop-color="#117fe7" stop-opacity=".22"/><stop offset="1" stop-opacity="0"/></linearGradient>
<filter id="x" x="-60%" y="-60%" width="220%" height="220%"><feGaussianBlur stdDeviation="8"/></filter><filter id="y" x="-70%" y="-70%" width="240%" height="240%"><feGaussianBlur stdDeviation="22"/></filter><filter id="z" x="-80%" y="-80%" width="260%" height="260%"><feGaussianBlur stdDeviation="38"/></filter>
<path id="t" d="M-46 28C47 111 119 149 216 164C296 177 344 211 432 285"/><path id="m" d="M18 126C86 174 130 247 170 321C206 388 241 452 279 530C310 594 327 686 349 844"/><path id="w" d="M-84 734C34 682 137 644 222 587C300 534 348 449 390 352"/>
</defs>
<rect width="390" height="844" fill="#061a3a"/>
<g fill="none" stroke-linecap="round">
<path d="M-58 44C35 120 112 157 213 173C293 186 346 220 438 295" stroke="url(#s)" stroke-width="58" filter="url(#y)" opacity=".86"/><use href="#t" stroke="url(#s)" stroke-width="16" filter="url(#x)" opacity=".9"/><use href="#t" stroke="#d6ffff" stroke-width="1.2" opacity=".42"/>
<use href="#m" stroke="#001029" stroke-width="128" filter="url(#z)" opacity=".5"/><use href="#m" stroke="url(#c)" stroke-width="88" filter="url(#y)" opacity=".88"/><use href="#m" stroke="url(#c)" stroke-width="42" filter="url(#x)" opacity=".9"/><use href="#m" stroke="url(#c)" stroke-width="4" opacity=".82"/>
<use href="#w" stroke="url(#l)" stroke-width="82" filter="url(#y)" opacity=".8"/><use href="#w" stroke="url(#g)" stroke-width="22" filter="url(#x)" opacity=".9"/><use href="#w" stroke="url(#g)" stroke-width="3" opacity=".86"/>
<path d="M-90 604C18 572 116 558 212 531C295 507 352 444 420 328" stroke="#bdf7ff" stroke-width="66" filter="url(#z)" opacity=".1"/>
<path d="M-86 612C38 557 132 564 232 522C319 485 348 407 421 331M-80 668C48 598 149 612 251 560C329 520 361 436 424 348M382 288C365 407 330 507 257 582C168 674 55 716-69 785" stroke="#9ef2ff" stroke-width="1.25" opacity=".22"/>
</g>
</svg>
