<?xml version="1.0" encoding="UTF-8"?>
<svg xmlns="&#x68;&#x74;&#x74;&#x70;&#x3A;&#x2F;&#x2F;&#x77;&#x77;&#x77;&#x2E;&#x77;&#x33;&#x2E;&#x6F;&#x72;&#x67;&#x2F;&#x32;&#x30;&#x30;&#x30;&#x2F;&#x73;&#x76;&#x67;"
     viewBox="0 0 350 350"
     width="350"
     height="350"
     role="img"
     aria-labelledby="title desc">

  <title id="title">Ground satellite dish</title>

  <desc id="desc">
    Original ground satellite dish shape with black outer structure, gold dish interior fill, and RX text.
  </desc>

  <!-- Gold interior fill so the map does not show through the bowl -->
  <path
    fill="#D6A43A"
    d="
      M92 103
      C114 109 139 123 163 143
      C189 164 211 189 230 218
      C214 226 190 227 166 220
      C134 210 105 188 84 158
      C74 144 68 129 66 113
      C74 109 83 105 92 103
      Z
    "
  />

  <g fill="currentColor">

    <!-- Pedestal -->
    <path
      fill-rule="evenodd"
      clip-rule="evenodd"
      d="
        M12 332
        Q10 332 10 328
        V319
        Q10 313 16 313
        H37
        L69 216
        C83 231 101 246 122 256
        L140 312
        H162
        Q168 312 168 318
        V332
        Z

        M73 250
        L104 269
        H72
        Z

        M70 282
        H103
        L86 312
        H58
        Z

        M109 287
        L124 312
        H94
        Z
      "
    />

    <!-- Dish outer body kept black -->
    <path
      d="
        M62 62
        C44 70 41 103 46 139
        C53 190 83 231 128 256
        C169 279 216 275 253 257
        C257 255 259 251 256 244
        C219 237 177 216 138 184
        C102 154 79 118 72 76
        C100 83 130 100 158 123
        L165 116
        C133 89 99 68 68 62
        C66 62 64 61 62 62
        Z
      "
    />

    <!-- Rear support -->
    <path
      d="
        M195 151
        C219 179 239 214 248 240
        L239 244
        C230 214 211 182 189 157
        Z
      "
    />

    <!-- Feed arms -->
    <path d="M123 144 L184 119 L190 127 L128 153 Z" />
    <path d="M148 173 L190 124 L164 188 Z" />

    <!-- Feed head -->
    <circle cx="202" cy="114" r="18" />

  </g>

  <!-- RX label -->
  <text
    x="144"
    y="175"
    font-family="system-ui, -apple-system, BlinkMacSystemFont, 'Segoe UI', sans-serif"
    font-size="34"
    font-weight="700"
    fill="#111111"
    transform="rotate(34 144 175)"
  >RX</text>

  <!-- Transmission arcs -->
  <g
    fill="none"
    stroke="currentColor"
    stroke-width="10"
    stroke-linecap="round"
  >
    <path d="M195 72 C224 76 244 96 248 119" />
    <path d="M195 42 C237 47 269 78 278 117" />
    <path d="M205 13 C257 19 299 58 308 113" />
  </g>

  <!-- Destination: data/icons/satellite-dish.svg -->
  <!-- End of file: data/icons/satellite-dish.svg | bottom/end of file -->
</svg>
